<svg width="1123" height="118" viewBox="0 0 1123 118" fill="none" xmlns="http://www.w3.org/2000/svg">
<path d="M56.4375 78.1094H79.1719C78.8594 86.651 77.1406 93.8646 74.0156 99.75C70.8906 105.583 66.4375 110.01 60.6562 113.031C54.9271 116.052 48 117.562 39.875 117.562C33.5729 117.562 27.974 116.521 23.0781 114.438C18.1823 112.302 14.0156 109.177 10.5781 105.062C7.14062 100.948 4.53646 95.8698 2.76562 89.8281C1.04688 83.7344 0.1875 76.7292 0.1875 68.8125V49.5156C0.1875 41.599 1.09896 34.5938 2.92188 28.5C4.79688 22.4062 7.45312 17.3021 10.8906 13.1875C14.3802 9.02083 18.5729 5.89583 23.4688 3.8125C28.4167 1.67708 33.9896 0.609375 40.1875 0.609375C48.4688 0.609375 55.3958 2.17188 60.9688 5.29688C66.5417 8.42188 70.8385 12.9792 73.8594 18.9688C76.9323 24.9062 78.7812 32.1719 79.4062 40.7656H56.5938C56.4375 35.349 55.8125 31.1042 54.7188 28.0312C53.6771 24.9062 52.0104 22.7188 49.7188 21.4688C47.4271 20.1667 44.25 19.5156 40.1875 19.5156C37.1667 19.5156 34.5625 20.0625 32.375 21.1562C30.1875 22.1979 28.3906 23.8906 26.9844 26.2344C25.5781 28.5781 24.5365 31.651 23.8594 35.4531C23.2344 39.2552 22.9219 43.8906 22.9219 49.3594V68.8125C22.9219 74.1771 23.2083 78.7604 23.7812 82.5625C24.3542 86.3125 25.2656 89.3854 26.5156 91.7812C27.7656 94.1771 29.4583 95.9219 31.5938 97.0156C33.7812 98.1094 36.5417 98.6562 39.875 98.6562C43.7292 98.6562 46.8281 98.0833 49.1719 96.9375C51.5677 95.7917 53.3385 93.7344 54.4844 90.7656C55.6302 87.7969 56.2812 83.5781 56.4375 78.1094ZM93.5469 2.25H130.031C137.635 2.25 144.12 3.55208 149.484 6.15625C154.849 8.76042 158.964 12.6146 161.828 17.7188C164.693 22.8229 166.125 29.125 166.125 36.625C166.125 42.7708 165.292 48.0312 163.625 52.4062C161.958 56.7292 159.589 60.349 156.516 63.2656C153.443 66.1302 149.771 68.4219 145.5 70.1406L138.547 74.2812H108.938L108.859 55.2969H129.406C132.531 55.2969 135.109 54.6198 137.141 53.2656C139.224 51.8594 140.76 49.9062 141.75 47.4062C142.792 44.8542 143.312 41.8854 143.312 38.5C143.312 34.9062 142.844 31.8333 141.906 29.2812C141.021 26.6771 139.589 24.6979 137.609 23.3438C135.682 21.9375 133.156 21.2344 130.031 21.2344H116.438V116H93.5469V2.25ZM145.188 116L124.328 65.2969L148.312 65.2188L169.641 114.906V116H145.188ZM247.297 97.0938V116H197.844V97.0938H247.297ZM204.953 2.25V116H182.062V2.25H204.953ZM240.656 48.3438V66.7031H197.844V48.3438H240.656ZM247.141 2.25V21.2344H197.844V2.25H247.141ZM301.828 22.5625L277.375 116H253.234L288.781 2.25H303.859L301.828 22.5625ZM321.125 116L296.516 22.5625L294.25 2.25H309.562L345.422 116H321.125ZM321.984 73.5781V92.5625H270.656V73.5781H321.984ZM392.219 2.25V116H369.484V2.25H392.219ZM420.5 2.25V21.2344H341.75V2.25H420.5ZM457.531 2.25V116H434.797V2.25H457.531ZM512.453 91.7031L534.016 2.25H558.703L525.734 116H509.094L512.453 91.7031ZM494.016 2.25L515.5 91.7031L519.016 116H502.297L469.562 2.25H494.016ZM634.797 97.0938V116H585.344V97.0938H634.797ZM592.453 2.25V116H569.562V2.25H592.453ZM628.156 48.3438V66.7031H585.344V48.3438H628.156ZM634.641 2.25V21.2344H585.344V2.25H634.641ZM748.078 48.3438V67.25H701.438V48.3438H748.078ZM707.922 2.25V116H685.031V2.25H707.922ZM764.641 2.25V116H741.984V2.25H764.641ZM863.234 50.2969V69.2812C863.234 77.3021 862.245 84.3333 860.266 90.375C858.339 96.3646 855.578 101.391 851.984 105.453C848.443 109.464 844.146 112.484 839.094 114.516C834.094 116.547 828.547 117.562 822.453 117.562C816.359 117.562 810.786 116.547 805.734 114.516C800.734 112.484 796.411 109.464 792.766 105.453C789.172 101.391 786.385 96.3646 784.406 90.375C782.427 84.3333 781.438 77.3021 781.438 69.2812V50.2969C781.438 42.0677 782.401 34.8802 784.328 28.7344C786.255 22.5365 789.042 17.3802 792.688 13.2656C796.333 9.09896 800.656 5.97396 805.656 3.89062C810.656 1.75521 816.203 0.6875 822.297 0.6875C828.391 0.6875 833.938 1.75521 838.938 3.89062C843.938 5.97396 848.26 9.09896 851.906 13.2656C855.552 17.3802 858.339 22.5365 860.266 28.7344C862.245 34.8802 863.234 42.0677 863.234 50.2969ZM840.5 69.2812V50.1406C840.5 44.724 840.109 40.1146 839.328 36.3125C838.547 32.4583 837.375 29.3073 835.812 26.8594C834.25 24.4115 832.349 22.6146 830.109 21.4688C827.87 20.3229 825.266 19.75 822.297 19.75C819.328 19.75 816.698 20.3229 814.406 21.4688C812.167 22.6146 810.266 24.4115 808.703 26.8594C807.193 29.3073 806.047 32.4583 805.266 36.3125C804.536 40.1146 804.172 44.724 804.172 50.1406V69.2812C804.172 74.4896 804.562 78.9427 805.344 82.6406C806.125 86.3385 807.297 89.3594 808.859 91.7031C810.422 94.0469 812.323 95.7917 814.562 96.9375C816.854 98.0312 819.484 98.5781 822.453 98.5781C825.37 98.5781 827.948 98.0312 830.188 96.9375C832.479 95.7917 834.38 94.0469 835.891 91.7031C837.401 89.3594 838.547 86.3385 839.328 82.6406C840.109 78.9427 840.5 74.4896 840.5 69.2812ZM930.969 2.25H953.781V80.375C953.781 89.125 952.167 96.2604 948.938 101.781C945.76 107.25 941.359 111.26 935.734 113.812C930.109 116.312 923.677 117.562 916.438 117.562C909.146 117.562 902.661 116.312 896.984 113.812C891.307 111.26 886.88 107.25 883.703 101.781C880.578 96.2604 879.016 89.125 879.016 80.375V2.25H901.828V80.375C901.828 85.3229 902.375 89.125 903.469 91.7812C904.615 94.4375 906.255 96.2604 908.391 97.25C910.578 98.1875 913.26 98.6562 916.438 98.6562C919.667 98.6562 922.323 98.1875 924.406 97.25C926.542 96.2604 928.156 94.4375 929.25 91.7812C930.396 89.125 930.969 85.3229 930.969 80.375V2.25ZM1019.41 86.0781C1019.41 84.0469 1019.22 82.1979 1018.86 80.5312C1018.49 78.8646 1017.71 77.3281 1016.52 75.9219C1015.37 74.5156 1013.68 73.1094 1011.44 71.7031C1009.25 70.2969 1006.39 68.8385 1002.84 67.3281C998.625 65.5573 994.536 63.6823 990.578 61.7031C986.62 59.6719 983.052 57.3281 979.875 54.6719C976.698 52.0156 974.172 48.8906 972.297 45.2969C970.474 41.651 969.562 37.3802 969.562 32.4844C969.562 27.6927 970.422 23.3438 972.141 19.4375C973.911 15.5312 976.411 12.1979 979.641 9.4375C982.87 6.625 986.646 4.46354 990.969 2.95312C995.344 1.44271 1000.21 0.6875 1005.58 0.6875C1012.87 0.6875 1019.17 2.19792 1024.48 5.21875C1029.85 8.23958 1033.99 12.3802 1036.91 17.6406C1039.88 22.901 1041.36 28.9427 1041.36 35.7656H1018.55C1018.55 32.5365 1018.08 29.6979 1017.14 27.25C1016.26 24.75 1014.82 22.7969 1012.84 21.3906C1010.86 19.9844 1008.31 19.2812 1005.19 19.2812C1002.27 19.2812 999.849 19.8802 997.922 21.0781C996.047 22.224 994.641 23.8125 993.703 25.8438C992.818 27.8229 992.375 30.0625 992.375 32.5625C992.375 34.4375 992.818 36.1302 993.703 37.6406C994.641 39.099 995.917 40.4271 997.531 41.625C999.146 42.7708 1001.05 43.8906 1003.23 44.9844C1005.47 46.0781 1007.92 47.1458 1010.58 48.1875C1015.73 50.2188 1020.29 52.4583 1024.25 54.9062C1028.21 57.3021 1031.52 60.0104 1034.17 63.0312C1036.83 66 1038.83 69.3594 1040.19 73.1094C1041.54 76.8594 1042.22 81.1302 1042.22 85.9219C1042.22 90.6615 1041.39 94.9844 1039.72 98.8906C1038.1 102.745 1035.73 106.078 1032.61 108.891C1029.48 111.651 1025.71 113.786 1021.28 115.297C1016.91 116.807 1012.01 117.562 1006.59 117.562C1001.33 117.562 996.359 116.833 991.672 115.375C986.984 113.865 982.844 111.599 979.25 108.578C975.708 105.505 972.922 101.625 970.891 96.9375C968.859 92.1979 967.844 86.599 967.844 80.1406H990.734C990.734 83.5781 991.073 86.5208 991.75 88.9688C992.427 91.3646 993.469 93.2917 994.875 94.75C996.281 96.1562 998 97.224 1000.03 97.9531C1002.11 98.6302 1004.48 98.9688 1007.14 98.9688C1010.16 98.9688 1012.56 98.3958 1014.33 97.25C1016.15 96.1042 1017.45 94.5677 1018.23 92.6406C1019.02 90.7135 1019.41 88.526 1019.41 86.0781ZM1122.92 97.0938V116H1073.47V97.0938H1122.92ZM1080.58 2.25V116H1057.69V2.25H1080.58ZM1116.28 48.3438V66.7031H1073.47V48.3438H1116.28ZM1122.77 2.25V21.2344H1073.47V2.25H1122.77Z" fill="#833AB4"/>
</svg>
